<svg width="17" height="17" viewBox="0 0 17 17" xmlns="http://www.w3.org/2000/svg">
<path d="M0.5 0.73913C0.5 0.607062 0.607062 0.5 0.73913 0.5H7.3913C7.52337 0.5 7.63043 0.607062 7.63043 0.73913V7.3913C7.63043 7.52337 7.52337 7.63043 7.3913 7.63043H0.73913C0.607062 7.63043 0.5 7.52337 0.5 7.3913V0.73913ZM0.5 9.6087C0.5 9.47663 0.607063 9.36957 0.73913 9.36957H7.3913C7.52337 9.36957 7.63043 9.47663 7.63043 9.6087V16.2609C7.63043 16.3929 7.52337 16.5 7.3913 16.5H0.73913C0.607062 16.5 0.5 16.3929 0.5 16.2609V9.6087ZM9.36957 0.73913C9.36957 0.607063 9.47663 0.5 9.6087 0.5H16.2609C16.3929 0.5 16.5 0.607062 16.5 0.73913V7.3913C16.5 7.52337 16.3929 7.63043 16.2609 7.63043H9.6087C9.47663 7.63043 9.36957 7.52337 9.36957 7.3913V0.73913ZM9.36957 9.6087C9.36957 9.47663 9.47663 9.36957 9.6087 9.36957H16.2609C16.3929 9.36957 16.5 9.47663 16.5 9.6087V16.2609C16.5 16.3929 16.3929 16.5 16.2609 16.5H9.6087C9.47663 16.5 9.36957 16.3929 9.36957 16.2609V9.6087Z"/>
</svg>
